<svg id="Warstwa_1" data-name="Warstwa 1" xmlns="http://www.w3.org/2000/svg" width="121.98" height="121.98" viewBox="0 0 121.98 121.98">
  <defs>
    <style>
      .cls-1 {
        fill: #fff;
        stroke: #237447;
        stroke-miterlimit: 10;
        stroke-width: 1.98px;
      }
    </style>
  </defs>
  <path class="cls-1" d="M61,1h0a60,60,0,0,1,60,60v60a0,0,0,0,1,0,0H61A60,60,0,0,1,1,61v0A60,60,0,0,1,61,1Z"/>
  <path class="cls-1" d="M-251.53,231.13a26.76,26.76,0,0,1,3.83.28,14,14,0,0,0,13.41,10,14.14,14.14,0,0,0,3.15-.36,26.08,26.08,0,0,1,3.53,6,13.93,13.93,0,0,0-3.95,9.73,13.91,13.91,0,0,0,4.15,9.94h0a25.59,25.59,0,0,1-3.35,5.95,13.39,13.39,0,0,0-3.19-.37,14,14,0,0,0-13.53,10.44,25.83,25.83,0,0,1-4.05.32" transform="translate(325.99 -208.34)"/>
  <path class="cls-1" d="M-213.31,292.16h0a15.88,15.88,0,0,1,.17,4.24,8.15,8.15,0,0,0-1.8.84,8.69,8.69,0,0,0-3.76,9.93,17,17,0,0,1-2,1.48,14.46,14.46,0,0,1-1.64.88A8.71,8.71,0,0,0-233,308.37a8.79,8.79,0,0,0-1.94,1.63,15.72,15.72,0,0,1-3.16-1.62,8.63,8.63,0,0,0-1.12-6.26,8.67,8.67,0,0,0-5.77-4,16.19,16.19,0,0,1-.2-5.1,8.9,8.9,0,0,0,1.94-.89,8.7,8.7,0,0,0,3.84-9.66,16,16,0,0,1,1.76-1.26,15.82,15.82,0,0,1,2.12-1.1,8.71,8.71,0,0,0,10.34.9,9.24,9.24,0,0,0,1.54-1.21,16.24,16.24,0,0,1,3.82,2,8.66,8.66,0,0,0,1.08,6.43A8.66,8.66,0,0,0-213.31,292.16Z" transform="translate(325.99 -208.34)"/>
  <path class="cls-1" d="M-251.53,245.08a12,12,0,0,1,12,12,12,12,0,0,1-12,12" transform="translate(325.99 -208.34)"/>
  <circle class="cls-1" cx="96.81" cy="86.61" r="7.59"/>
  <rect class="cls-1" x="14.97" y="36.81" width="52.56" height="38.97" rx="4"/>
  <line class="cls-1" x1="15.25" y1="48.87" x2="67.68" y2="48.87"/>
  <circle class="cls-1" cx="21.76" cy="42.86" r="1.62"/>
  <circle class="cls-1" cx="27.44" cy="42.86" r="1.62"/>
  <circle class="cls-1" cx="33.11" cy="42.86" r="1.62"/>
</svg>
