<svg id="Warstwa_1" data-name="Warstwa 1" xmlns="http://www.w3.org/2000/svg" width="121.98" height="121.98" viewBox="0 0 121.98 121.98">
  <defs>
    <style>
      .cls-1 {
        fill: #fff;
        stroke: #237447;
        stroke-miterlimit: 10;
        stroke-width: 1.98px;
      }
    </style>
  </defs>
  <path class="cls-1" d="M61,1h0a60,60,0,0,1,60,60v60a0,0,0,0,1,0,0H61A60,60,0,0,1,1,61v0A60,60,0,0,1,61,1Z"/>
  <g>
    <path class="cls-1" d="M-205.63,279.33h-25.08a1.9,1.9,0,0,1-1.9-1.9V233.28a1.9,1.9,0,0,1,1.9-1.9h55.37a1.9,1.9,0,0,1,1.9,1.9v18" transform="translate(252.66 -205.67)"/>
    <line class="cls-1" x1="20.36" y1="40.54" x2="79.39" y2="40.54"/>
    <ellipse class="cls-1" cx="27.68" cy="33.16" rx="1.82" ry="1.99"/>
    <ellipse class="cls-1" cx="34.08" cy="33.16" rx="1.82" ry="1.99"/>
    <ellipse class="cls-1" cx="40.47" cy="33.16" rx="1.82" ry="1.99"/>
    <path class="cls-1" d="M-163.62,295.49a22.6,22.6,0,0,1-14.64,5.36,22.64,22.64,0,0,1-22.64-22.64,22.65,22.65,0,0,1,22.64-22.65,22.65,22.65,0,0,1,22.65,22.65,22.52,22.52,0,0,1-3.83,12.6" transform="translate(252.66 -205.67)"/>
    <path class="cls-1" d="M-159.34,290.4-144,303.59a3.75,3.75,0,0,1,.39,5.29l-1.63,1.89a3.75,3.75,0,0,1-5.29.4l-15.8-13.61" transform="translate(252.66 -205.67)"/>
  </g>
</svg>
