<svg id="Warstwa_1" data-name="Warstwa 1" xmlns="http://www.w3.org/2000/svg" width="121.98" height="121.98" viewBox="0 0 121.98 121.98">
  <defs>
    <style>
      .cls-1 {
        fill: #fff;
        stroke: #237447;
        stroke-miterlimit: 10;
        stroke-width: 1.98px;
      }
    </style>
  </defs>
  <path class="cls-1" d="M61,1h0a60,60,0,0,1,60,60v60a0,0,0,0,1,0,0H61A60,60,0,0,1,1,61v0A60,60,0,0,1,61,1Z"/>
  <g>
    <path class="cls-1" d="M-221.28,121.78a25.7,25.7,0,0,1,3.65.27,13.34,13.34,0,0,0,12.78,9.48,13.37,13.37,0,0,0,3-.33,24.86,24.86,0,0,1,3.36,5.7,13.29,13.29,0,0,0-3.76,9.27,13.3,13.3,0,0,0,3.95,9.47h0a24.11,24.11,0,0,1-3.19,5.67,13.15,13.15,0,0,0-3-.35,13.33,13.33,0,0,0-12.89,9.95,25.88,25.88,0,0,1-3.86.3" transform="translate(291.25 -98.35)"/>
    <path class="cls-1" d="M-184.87,179.92h0a15.66,15.66,0,0,1,.16,4,7.87,7.87,0,0,0-1.72.8,8.29,8.29,0,0,0-3.58,9.46,14.59,14.59,0,0,1-1.94,1.41,13.68,13.68,0,0,1-1.55.84,8.29,8.29,0,0,0-10.12-1.12,8.51,8.51,0,0,0-1.85,1.55,14.75,14.75,0,0,1-3-1.54,8.19,8.19,0,0,0-1.07-6,8.23,8.23,0,0,0-5.49-3.79,15.28,15.28,0,0,1-.2-4.86,8,8,0,0,0,1.86-.85,8.27,8.27,0,0,0,3.65-9.2,17,17,0,0,1,1.68-1.2,16.11,16.11,0,0,1,2-1,8.29,8.29,0,0,0,9.84.85,8.48,8.48,0,0,0,1.48-1.15,15.57,15.57,0,0,1,3.63,1.91,8.26,8.26,0,0,0,1,6.13A8.25,8.25,0,0,0-184.87,179.92Z" transform="translate(291.25 -98.35)"/>
    <path class="cls-1" d="M-221.28,135.07a11.42,11.42,0,0,1,11.42,11.42,11.42,11.42,0,0,1-11.42,11.43" transform="translate(291.25 -98.35)"/>
    <circle class="cls-1" cx="91.26" cy="84.22" r="7.23"/>
    <g>
      <path class="cls-1" d="M-241.15,139.14c0,6.32-4.07,10-9.1,10s-9.09-3.65-9.09-10" transform="translate(291.25 -98.35)"/>
      <path class="cls-1" d="M-258.94,128.76c0-6.56,3.48-7.42,8.69-7.42s8.7.86,8.7,7.42" transform="translate(291.25 -98.35)"/>
      <path class="cls-1" d="M-267.95,160.25v-4.31A4.4,4.4,0,0,1-265.5,152l6.74-3.35a11,11,0,0,0,8.51,4.36,11,11,0,0,0,8.46-4.3l6.44,3.28a4.39,4.39,0,0,1,2.41,3.92v4.34" transform="translate(291.25 -98.35)"/>
      <path class="cls-1" d="M-228.46,178.52l3.91,6.45a.92.92,0,0,1-.79,1.4h-49.61a.92.92,0,0,1-.83-1.32l3.16-6.53" transform="translate(291.25 -98.35)"/>
      <path class="cls-1" d="M-249.42,178.83h-18.23l-3.89-16.61a1.76,1.76,0,0,1,1.71-2.16H-231a1.76,1.76,0,0,1,1.71,2.16l-3.89,16.61" transform="translate(291.25 -98.35)"/>
      <path class="cls-1" d="M-241.19,130.89c2.32.71,3.75,1.69,3.75,2.77,0,2.16-5.73,3.91-12.81,3.91s-12.81-1.75-12.81-3.91c0-1,1.28-1.95,3.38-2.65" transform="translate(291.25 -98.35)"/>
    </g>
  </g>
</svg>
