<svg id="Warstwa_1" data-name="Warstwa 1" xmlns="http://www.w3.org/2000/svg" width="121.98" height="121.98" viewBox="0 0 121.98 121.98">
  <defs>
    <style>
      .cls-1 {
        fill: #fff;
        stroke: #237447;
        stroke-miterlimit: 10;
        stroke-width: 1.98px;
      }
    </style>
  </defs>
  <path class="cls-1" d="M61,1h0a60,60,0,0,1,60,60v60a0,0,0,0,1,0,0H61A60,60,0,0,1,1,61v0A60,60,0,0,1,61,1Z"/>
  <g>
    <path class="cls-1" d="M-281.4,260c0,5-3.23,7.88-7.2,7.88s-7.19-2.88-7.19-7.88" transform="translate(327.98 -204.05)"/>
    <path class="cls-1" d="M-295.48,251.8c0-5.2,2.76-5.88,6.88-5.88s6.88.68,6.88,5.88" transform="translate(327.98 -204.05)"/>
    <path class="cls-1" d="M-302.6,277.21V273.8a3.49,3.49,0,0,1,1.93-3.12l5.33-2.65a8.75,8.75,0,0,0,6.74,3.45,8.71,8.71,0,0,0,6.7-3.4l5.09,2.59a3.49,3.49,0,0,1,1.91,3.1v3.44" transform="translate(327.98 -204.05)"/>
    <path class="cls-1" d="M-271.36,291.66l3.09,5.11a.72.72,0,0,1-.62,1.1h-39.26a.72.72,0,0,1-.65-1l2.5-5.17" transform="translate(327.98 -204.05)"/>
    <path class="cls-1" d="M-287.94,291.91h-14.43l-3.08-13.15a1.39,1.39,0,0,1,1.35-1.71h30.69a1.39,1.39,0,0,1,1.35,1.71l-3.08,13.15" transform="translate(327.98 -204.05)"/>
    <path class="cls-1" d="M-281.43,253.48c1.83.56,3,1.33,3,2.19,0,1.71-4.54,3.09-10.14,3.09s-10.13-1.38-10.13-3.09c0-.81,1-1.54,2.67-2.1" transform="translate(327.98 -204.05)"/>
    <path class="cls-1" d="M-228,260.47c0,5-3.23,7.89-7.2,7.89s-7.19-2.89-7.19-7.89" transform="translate(327.98 -204.05)"/>
    <path class="cls-1" d="M-242.09,252.26c0-5.19,2.76-5.88,6.88-5.88s6.88.69,6.88,5.88" transform="translate(327.98 -204.05)"/>
    <path class="cls-1" d="M-249.21,277.67v-3.41a3.49,3.49,0,0,1,1.93-3.12l5.33-2.65a8.72,8.72,0,0,0,6.74,3.45,8.71,8.71,0,0,0,6.7-3.4l5.09,2.6a3.47,3.47,0,0,1,1.91,3.1v3.43" transform="translate(327.98 -204.05)"/>
    <path class="cls-1" d="M-218,292.13l3.09,5.1a.73.73,0,0,1-.62,1.11h-39.26a.73.73,0,0,1-.65-1l2.5-5.16" transform="translate(327.98 -204.05)"/>
    <path class="cls-1" d="M-234.55,292.37H-249l-3.08-13.14a1.39,1.39,0,0,1,1.35-1.71H-220a1.39,1.39,0,0,1,1.35,1.71l-3.08,13.14" transform="translate(327.98 -204.05)"/>
    <path class="cls-1" d="M-228,253.94c1.83.56,3,1.34,3,2.19,0,1.71-4.54,3.1-10.14,3.1s-10.13-1.39-10.13-3.1c0-.81,1-1.54,2.67-2.09" transform="translate(327.98 -204.05)"/>
    <path class="cls-1" d="M-257.12,234.38c0,3.63-2.33,5.72-5.21,5.72s-5.22-2.09-5.22-5.72" transform="translate(327.98 -204.05)"/>
    <path class="cls-1" d="M-267.32,227.92c0-3.76,2-4.26,5-4.26s5,.5,5,4.26" transform="translate(327.98 -204.05)"/>
    <path class="cls-1" d="M-272.49,247.49V245a2.53,2.53,0,0,1,1.4-2.26l3.87-1.92a6.33,6.33,0,0,0,4.89,2.5,6.33,6.33,0,0,0,4.85-2.46l3.7,1.88A2.54,2.54,0,0,1-252.4,245v2.49" transform="translate(327.98 -204.05)"/>
    <path class="cls-1" d="M-249.83,258l2.24,3.7a.53.53,0,0,1-.45.81h-28.47a.53.53,0,0,1-.48-.76l1.82-3.75" transform="translate(327.98 -204.05)"/>
    <path class="cls-1" d="M-261.86,258.15h-10.46l-2.24-9.53a1,1,0,0,1,1-1.24h22.25a1,1,0,0,1,1,1.24l-2.23,9.53" transform="translate(327.98 -204.05)"/>
    <path class="cls-1" d="M-257.14,229.15c1.33.4,2.16,1,2.16,1.58,0,1.24-3.29,2.25-7.35,2.25s-7.36-1-7.36-2.25c0-.58.74-1.12,1.94-1.52" transform="translate(327.98 -204.05)"/>
  </g>
</svg>
